<svg aria-hidden="true" style="position: absolute; width: 0; height: 0; overflow: hidden;" version="1.1" xmlns="http://www.w3.org/2000/svg" xmlns:xlink="http://www.w3.org/1999/xlink">
<defs>
<symbol id="icon-case" viewBox="0 0 32 32">
<title>case</title>
<path d="M28.5 11.091v5.359h-25v-5.359c0-0.613 0.219-1.141 0.653-1.575 0.438-0.438 0.963-0.653 1.575-0.653h4.909v-2.234c0-0.372 0.128-0.688 0.391-0.947 0.262-0.263 0.578-0.391 0.947-0.391h8.037c0.372 0 0.688 0.128 0.947 0.391 0.262 0.263 0.391 0.578 0.391 0.947v2.234h4.909c0.613 0 1.141 0.222 1.575 0.653 0.447 0.434 0.666 0.959 0.666 1.575zM28.5 17.784v6.7c0 0.613-0.222 1.141-0.653 1.575-0.438 0.438-0.962 0.653-1.575 0.653h-20.538c-0.612 0-1.141-0.219-1.575-0.653-0.438-0.438-0.656-0.962-0.656-1.575v-6.7h9.372v2.234c0 0.241 0.088 0.45 0.266 0.628s0.384 0.266 0.628 0.266h4.463c0.241 0 0.45-0.087 0.628-0.266s0.266-0.384 0.266-0.628v-2.234h9.375zM12.431 8.856h7.141v-1.787h-7.141v1.787zM17.788 17.784v1.788h-3.575v-1.788h3.575z"></path>
</symbol>
<symbol id="icon-contact" viewBox="0 0 32 32">
<title>contact</title>
<path d="M31.895 26.123l-3.276-10.386c-0.296-0.917-1.141-1.569-2.139-1.569-0 0-0 0-0 0h-2.539c-1.662 2.689-3.985 4.897-5.531 6.361l-0.268 0.254c-0.555 0.53-1.309 0.855-2.139 0.855-0.001 0-0.002 0-0.003 0h0c-0.001 0-0.001 0-0.002 0-0.833 0-1.589-0.328-2.147-0.861l0.001 0.001-0.311-0.295c-1.631-1.546-3.894-3.7-5.51-6.315h-2.716c-0 0-0 0-0 0-1.007 0-1.859 0.663-2.143 1.577l-0.004 0.016-3.069 10.135c-0.505 1.668 1.001 3.249 2.691 2.827l6.92-1.73c0.163-0.043 0.351-0.067 0.544-0.067 0.511 0 0.983 0.171 1.36 0.459l-0.005-0.004 5.487 4.157c0.372 0.284 0.843 0.455 1.355 0.455 0.202 0 0.397-0.027 0.583-0.076l-0.016 0.004 11.305-2.953c0.972-0.26 1.677-1.133 1.677-2.171 0-0.241-0.038-0.473-0.108-0.691l0.004 0.016z"></path>
<path d="M15.324 19.234c0.379 0.361 0.971 0.363 1.349 0.003 2.434-2.312 7.157-6.607 7.157-11.4 0-4.325-3.506-7.831-7.831-7.831s-7.831 3.506-7.831 7.831c0 4.809 4.662 9.026 7.155 11.398zM16 4.897c0.012-0 0.026-0 0.040-0 1.624 0 2.94 1.316 2.94 2.94s-1.316 2.94-2.94 2.94c-0.014 0-0.028-0-0.042-0l0.002 0c-1.607-0.022-2.901-1.33-2.901-2.94s1.294-2.918 2.899-2.94l0.002-0z"></path>
</symbol>
<symbol id="icon-home" viewBox="0 0 32 32">
<title>home</title>
<path d="M28.856 14.866c0.109 0.178 0.15 0.394 0.097 0.613-0.087 0.347-0.397 0.584-0.738 0.6v0.009h-2.981v11.881c0 0.541-0.438 0.978-0.978 0.978h-16.225c-0.541 0-0.978-0.438-0.978-0.978v-11.881h-3.2v-0.012c-0.344-0.016-0.65-0.253-0.737-0.603-0.056-0.219-0.016-0.438 0.097-0.616h-0.038l0.116-0.109c0.034-0.037 0.072-0.075 0.112-0.106l11.978-11.213 0.009 0.009c0.147-0.197 0.378-0.325 0.644-0.325 0.262 0 0.497 0.128 0.641 0.325l0.003-0.003 11.975 11.206c0.047 0.034 0.091 0.075 0.128 0.119l0.106 0.1-0.031 0.006zM16.141 18.575c-1.806 0-3.272 1.462-3.272 3.269s1.466 3.269 3.272 3.269 3.272-1.462 3.272-3.269c0-1.803-1.462-3.269-3.272-3.269z"></path>
</symbol>
<symbol id="icon-pro" viewBox="0 0 32 32">
<title>pro</title>
<path d="M8.888 3.19c3.107 0 5.623 2.491 5.623 5.599v5.623h-5.623c-3.107 0-5.599-2.515-5.599-5.623s2.491-5.599 5.599-5.599v0z"></path>
<path d="M3.437 23.069c0-3.107 2.516-5.624 5.624-5.624h5.599v5.624c0 3.082-2.516 5.598-5.599 5.598-3.108 0-5.624-2.516-5.624-5.598v0z"></path>
<path d="M23.266 3.19c-3.107 0-5.598 2.491-5.598 5.599v5.623h5.598c3.107 0 5.623-2.515 5.623-5.623s-2.516-5.599-5.623-5.599v0z"></path>
<path d="M28.717 23.069c0-3.107-2.492-5.624-5.599-5.624h-5.624v5.624c0 3.082 2.516 5.598 5.624 5.598s5.599-2.516 5.599-5.598v0z"></path>
</symbol>
</defs>
</svg>
