<svg version="1.1" xmlns="http://www.w3.org/2000/svg" xmlns:xlink="http://www.w3.org/1999/xlink">

<symbol id="icon-email" viewBox="0 0 32 32">
<title>email</title>
<path d="M16 17.152l12.064-10.032c-0.4-0.336-0.896-0.56-1.456-0.56h-21.232c-0.56 0-1.056 0.224-1.456 0.544l12.080 10.048z"></path>
<path d="M16.752 19.6c-0.224 0.176-0.48 0.272-0.752 0.272s-0.528-0.096-0.752-0.272l-12.208-10.144v13.616c0 1.28 1.056 2.352 2.352 2.352h21.232c1.296 0 2.352-1.056 2.352-2.352v-13.616l-12.224 10.144z"></path>
</symbol>
<symbol id="icon-home" viewBox="0 0 32 32">
<title>home</title>
<path d="M23.836 31.999h-3.524c-0.713 0-1.286-0.561-1.307-1.275v-8.953c0-1.659-1.349-3.010-3.004-3.010-1.658 0-3.006 1.351-3.006 3.010l-0.004 8.92c0 0.722-0.587 1.309-1.308 1.309h-3.526c-2.051 0-3.719-1.671-3.719-3.723v-11.040h-3.131c-0.524 0-0.997-0.313-1.205-0.8-0.205-0.494-0.097-1.052 0.274-1.428l14.438-14.636c0.489-0.5 1.378-0.5 1.871 0.008l2.729 2.818c0.020-0.702 0.6-1.268 1.307-1.268h3.115c0.722 0 1.307 0.587 1.307 1.308v5.833l6.433 5.893c0.398 0.365 0.531 0.93 0.336 1.437-0.193 0.5-0.684 0.837-1.22 0.837h-3.135v11.039c0 2.050-1.669 3.721-3.721 3.721z"></path>
</symbol>
<symbol id="icon-message" viewBox="0 0 32 32">
<title>message</title>
<path d="M16.121 1.115c-8.669 0-15.93 6.626-15.93 14.020 0 4.26 2.41 8.056 6.111 10.509 0.154 3.463-2.631 5.776-2.631 5.776s6.38-1.070 9.052-3.206c1.098 0.205 2.235 0.313 3.397 0.313 8.669 0 15.638-5.997 15.638-13.391s-6.969-14.020-15.638-14.020zM9.031 16.899c-1.046 0-1.894-0.848-1.894-1.894s0.848-1.894 1.894-1.894c1.046 0 1.894 0.848 1.894 1.894s-0.848 1.894-1.894 1.894zM16.607 16.899c-1.046 0-1.894-0.848-1.894-1.894s0.848-1.894 1.894-1.894 1.894 0.848 1.894 1.894c0 1.046-0.848 1.894-1.894 1.894zM23.552 16.899c-1.046 0-1.894-0.848-1.894-1.894s0.848-1.894 1.894-1.894 1.894 0.848 1.894 1.894c0 1.046-0.848 1.894-1.894 1.894z"></path>
</symbol>
<symbol id="icon-phone" viewBox="0 0 32 32">
<title>phone</title>
<path d="M14.267 16.451c-2.234-2.232-4.368-4.818-3.345-5.84 1.462-1.464 2.737-2.365 0.145-5.591s-4.321-0.749-5.739 0.67c-1.634 1.636-0.086 7.733 5.941 13.761 6.027 6.025 12.125 7.576 13.761 5.939 1.419-1.417 3.895-3.145 0.67-5.738s-4.127-1.318-5.591 0.145c-1.024 1.020-3.608-1.114-5.842-3.346v0 0z"></path>
</symbol>
<symbol id="icon-tel" viewBox="0 0 32 32">
<title>tel</title>
<path d="M2.434 18.007l8.431-5.679v-2.646c0 0-1.693 0.071-1.693 2.505s-6.138 1.658-6.737 1.658-0.847-0.423-0.847-3.019 1.869-5.41 14.41-5.41 14.392 3.421 14.392 5.41 0 3.019-0.865 3.019-6.773 0.882-6.773-1.623-1.728-2.681-1.728-2.681v2.752l8.501 5.644v8.642h-27.090v-8.572zM15.988 14.938c-2.396 0-4.339 1.943-4.339 4.339s1.943 4.339 4.339 4.339c2.396 0 4.339-1.943 4.339-4.339 0-2.395-1.943-4.339-4.339-4.339zM19.33 10.173c0-0.353-0.287-0.64-0.64-0.64h-5.404c-0.353 0-0.64 0.287-0.64 0.64v1.303c0 0.353 0.287 0.64 0.64 0.64h5.404c0.353 0 0.64-0.287 0.64-0.64v-1.303z"></path>
</symbol>
<symbol id="icon-user" viewBox="0 0 32 32">
<title>user</title>
<path d="M15.703 1.973c3.934 0 7.123 3.137 7.123 7.006s-3.189 7.007-7.123 7.007-7.123-3.137-7.123-7.007c0-3.87 3.19-7.006 7.123-7.006zM15.703 1.973c3.934 0 7.123 3.137 7.123 7.006s-3.189 7.007-7.123 7.007-7.123-3.137-7.123-7.007c0-3.87 3.19-7.006 7.123-7.006zM13.032 18.322h5.937c5.082 0 9.201 4.051 9.201 9.050v0.583c0 1.97-4.12 2.045-9.201 2.045h-5.937c-5.082 0-9.201-0.003-9.201-2.045v-0.583c0-4.999 4.119-9.050 9.201-9.050z"></path>
</symbol>
</svg>